<?xml version="1.0" encoding="UTF-8"?>
<svg xmlns="http://www.w3.org/2000/svg" xmlns:xlink="http://www.w3.org/1999/xlink" viewBox="0 0 841.89 353.06">
  <defs>
    <style>
      .cls-1 {
        fill: #f7f4cd;
      }

      .cls-1, .cls-2, .cls-3, .cls-4 {
        stroke-linecap: round;
        stroke-linejoin: round;
      }

      .cls-1, .cls-4 {
        stroke: #f3f1cb;
        stroke-width: 3px;
      }

      .cls-5, .cls-2 {
        fill: #f0eecb;
      }

      .cls-2 {
        stroke: #c14c4c;
      }

      .cls-2, .cls-3 {
        stroke-width: 10px;
      }

      .cls-6 {
        fill: #b84a4b;
      }

      .cls-7 {
        fill: url(#_名称未設定グラデーション_3);
      }

      .cls-8 {
        fill: #74a49f;
      }

      .cls-3 {
        fill: #c14c4c;
        stroke: #f0eecb;
      }

      .cls-4 {
        fill: none;
      }
    </style>
    <linearGradient id="_名称未設定グラデーション_3" data-name="名称未設定グラデーション 3" x1="418.65" y1="216.83" x2="418.65" y2="12.48" gradientUnits="userSpaceOnUse">
      <stop offset="0" stop-color="#c14c4c"/>
      <stop offset="1" stop-color="#231815"/>
    </linearGradient>
  </defs>
  <g id="_レイヤー_4" data-name="レイヤー 4">
    <rect class="cls-8" x="-.46" width="843.72" height="353.06"/>
  </g>
  <g id="_レイヤー_3" data-name="レイヤー 3">
    <path class="cls-7" d="M685.42,12.48c-35,0-66.58,14.66-88.92,38.18-22.35-23.52-53.92-38.18-88.92-38.18s-66.58,14.66-88.92,38.18c-22.35-23.52-53.92-38.18-88.92-38.18s-66.58,14.66-88.92,38.18c-22.35-23.52-53.92-38.18-88.92-38.18-67.74,0-122.65,54.91-122.65,122.65,0,31.39,11.8,60.02,31.19,81.71h716.45c19.39-21.69,31.19-50.32,31.19-81.71,0-67.74-54.91-122.65-122.65-122.65Z"/>
  </g>
  <g id="_レイヤー_2" data-name="レイヤー 2">
    <path class="cls-1" d="M109.06,41.56c-.63,3.31-3.24,10.51-14.16,15.67-.61.29-.45,1.21.23,1.25,4.12.24,11.47,1.73,18.81,8.46.35.32.9.2,1.06-.24.96-2.54,4.41-9.54,14.32-12.74.66-.21.61-1.16-.07-1.27-4.8-.83-13.53-3.41-19-11.37-.33-.48-1.08-.34-1.18.24Z"/>
    <polyline class="cls-4" points="96.45 77.61 121.18 77.61 79.38 178.03"/>
    <line class="cls-1" x1="109.24" y1="124.53" x2="83.69" y2="185.91"/>
    <polygon class="cls-1" points="87.51 195.65 117.11 124.53 137 124.53 109.24 195.65 87.51 195.65"/>
    <line class="cls-1" x1="247.83" y1="195.65" x2="87.51" y2="195.65"/>
    <path class="cls-1" d="M173.23,76.17s43.56,16.56,63.8,37.42l-14.31,12.68s-28.33-37.67-49.49-50.1Z"/>
    <path class="cls-1" d="M186.73,55.51h7.77-7.77Z"/>
    <path class="cls-1" d="M194.5,55.51h22.29s1.02,62.17-74.44,68.1c0,0,56.61-28.12,52.15-68.1Z"/>
    <path class="cls-1" d="M161.86,47.13s-.53,7.71-6.15,20c-6.76,14.79-11.69,16.34-18.71,24.79,0,0,44.61-14.31,44.41-44.79h-19.55Z"/>
    <path class="cls-1" d="M186.97,116.8s7.69,55.42-10.9,72.76h27.71v-72.76h-16.8Z"/>
    <path class="cls-1" d="M137,156.5h91.8-91.8Z"/>
    <path class="cls-1" d="M151.58,143.25h70.97-70.97Z"/>
    <path class="cls-1" d="M160.51,130.38h56.28-56.28Z"/>
    <path class="cls-1" d="M283.79,48.19h28.55-28.55Z"/>
    <path class="cls-1" d="M269.27,105.39s30.69-3.27,42.83-55.75h-17.84s1.78,33.71-24.98,55.75Z"/>
    <path class="cls-1" d="M309.49,69.12h24.45-24.45Z"/>
    <path class="cls-1" d="M273.98,109.09h71.2-71.2Z"/>
    <line class="cls-1" x1="317.34" y1="73.81" x2="272.01" y2="196.71"/>
    <line class="cls-1" x1="300.97" y1="138.83" x2="279.63" y2="196.71"/>
    <line class="cls-1" x1="301.55" y1="157.02" x2="286.91" y2="196.71"/>
    <polygon class="cls-1" points="309.58 115.32 343.18 196.71 364.85 196.71 330.77 115.32 309.58 115.32"/>
    <rect class="cls-1" x="362.43" y="96.19" width="19.55" height="70.47"/>
    <path class="cls-1" d="M386.25,99.11h41.57-41.57Z"/>
    <path class="cls-1" d="M405.35,166.65h-23.36,23.36Z"/>
    <rect class="cls-1" x="410.3" y="99.11" width="17.53" height="67.54"/>
    <path class="cls-1" d="M461.12,68.91h55.48-55.48Z"/>
    <path class="cls-1" d="M484.41,39.87v76.48V39.87Z"/>
    <rect class="cls-1" x="458.15" y="116.36" width="17.36" height="78.47"/>
    <path class="cls-1" d="M494.58,194.83h-36.42,36.42Z"/>
    <path class="cls-1" d="M484.41,116.36h35.58-35.58Z"/>
    <rect class="cls-1" x="502.2" y="116.36" width="17.79" height="81.43"/>
    <path class="cls-1" d="M533.16,42.83s-1.84,42.37-26.16,49.74c0,0,27.23,2.11,39.53-24.02,3.11-6.61,5.27-15.02,5.79-25.72h-19.16Z"/>
    <path class="cls-1" d="M595.06,69.2h-50.04,50.04Z"/>
    <path class="cls-1" d="M581.43,74.15l-51.77,123.64,51.77-123.64Z"/>
    <path class="cls-1" d="M562.58,142.5l-23.15,55.29,23.15-55.29Z"/>
    <path class="cls-1" d="M566.93,157.07l-17.09,40.82,17.09-40.82Z"/>
    <polyline class="cls-1" points="549.84 87.87 603.56 197.89 585.05 197.89 585.2 161.08"/>
    <path class="cls-1" d="M640.85,46.35s7.42,9.39-13.19,39.9c0,0,32.15-9.71,32.57-39.9h-19.38Z"/>
    <path class="cls-1" d="M687.02,61.93h-30.27,30.27Z"/>
    <path class="cls-1" d="M694.44,81.64h-57.74,57.74Z"/>
    <path class="cls-1" d="M668.05,71.24l-27.21,56.84,27.21-56.84Z"/>
    <path class="cls-1" d="M665.57,99.67l-14.83,28.42,14.83-28.42Z"/>
    <polygon class="cls-1" points="668.05 91.39 687.02 128.09 703.09 128.09 683.31 91.39 668.05 91.39"/>
    <rect class="cls-1" x="707.22" y="61.93" width="16.08" height="66.16"/>
    <path class="cls-1" d="M737.31,128.09h-30.09,30.09Z"/>
    <polyline class="cls-1" points="731.95 68.52 757.92 68.52 757.92 128.09 744.94 128.09 744.94 68.52"/>
    <path class="cls-1" d="M643.94,137.16v64.15-64.15Z"/>
    <polyline class="cls-1" points="654.12 137.16 757.18 137.16 757.18 201.42 736.18 201.42 735.74 137.16"/>
    <path class="cls-1" d="M654.12,156.21h79.71-79.71Z"/>
    <path class="cls-1" d="M653.27,185.44h82.79-82.79Z"/>
    <g>
      <g>
        <path class="cls-6" d="M274.23,329.98c-1.1,0-2-.9-2-2v-55.6c-9.95,7.07-20.33,10.62-20.79,10.77-.2.07-.42.11-.64.11-.74,0-1.42-.41-1.77-1.06-.46-.87-.23-1.93.56-2.53,17.4-13.19,24.09-34.01,24.15-34.22.26-.84,1.03-1.4,1.91-1.4h12.64c.57,0,1.11.24,1.49.66.38.42.56.99.5,1.55-.86,7.91-5.2,15.34-12.9,22.08-.38.33-.76.65-1.14.97v58.67c0,1.1-.9,2-2,2Z"/>
        <path class="cls-5" d="M288.29,245.04c.28,0,.55.12.74.33.19.21.28.49.25.78-.83,7.65-5.06,14.87-12.57,21.44-.49.43-.99.84-1.49,1.25v59.14c0,.55-.45,1-1,1s-1-.45-1-1v-57.57c-10.26,7.74-21.58,11.62-22.11,11.8-.11.04-.21.05-.32.05-.36,0-.71-.2-.88-.53-.23-.43-.11-.97.28-1.26,17.7-13.41,24.44-34.51,24.5-34.72.13-.42.52-.7.95-.7h12.64M288.29,243.04h-12.64c-1.32,0-2.47.85-2.86,2.11-.06.2-6.71,20.77-23.8,33.72-1.18.89-1.53,2.49-.84,3.79.52.98,1.54,1.6,2.65,1.6.33,0,.66-.05.97-.16.43-.15,9.9-3.38,19.46-9.81v53.69c0,1.65,1.35,3,3,3s3-1.35,3-3v-58.2c.27-.23.54-.46.8-.69,7.89-6.91,12.35-14.56,13.24-22.72.09-.84-.18-1.69-.75-2.33-.57-.64-1.39-1-2.24-1h0Z"/>
      </g>
      <g>
        <path class="cls-6" d="M298.09,305.41c-1.1,0-2-.9-2-2v-52.83c0-1.1.9-2,2-2s2,.9,2,2v52.83c0,1.1-.9,2-2,2Z"/>
        <path class="cls-5" d="M298.09,249.58c.55,0,1,.45,1,1v52.83c0,.55-.45,1-1,1s-1-.45-1-1v-52.83c0-.55.45-1,1-1M298.09,247.58c-1.65,0-3,1.35-3,3v52.83c0,1.65,1.35,3,3,3s3-1.35,3-3v-52.83c0-1.65-1.35-3-3-3h0Z"/>
      </g>
      <g>
        <path class="cls-6" d="M324.08,305.41c-1.1,0-2-.9-2-2v-3.54h-18.31c-1.1,0-2-.9-2-2s.9-2,2-2h18.31v-10.77h-18.31c-1.1,0-2-.9-2-2s.9-2,2-2h18.31v-11.48h-18.31c-1.1,0-2-.9-2-2s.9-2,2-2h18.31v-13.04h-18.31c-1.1,0-2-.9-2-2s.9-2,2-2h34.22c1.1,0,2,.9,2,2v52.83c0,1.1-.9,2-2,2h-13.92Z"/>
        <path class="cls-5" d="M338,249.58c.55,0,1,.45,1,1v52.83c0,.55-.45,1-1,1h-13.92c-.55,0-1-.45-1-1v-4.54h-19.31c-.55,0-1-.45-1-1s.45-1,1-1h19.31v-12.77h-19.31c-.55,0-1-.45-1-1s.45-1,1-1h19.31v-13.48h-19.31c-.55,0-1-.45-1-1s.45-1,1-1h19.31v-15.04h-19.31c-.55,0-1-.45-1-1s.45-1,1-1h34.22M338,247.58h-34.22c-1.65,0-3,1.35-3,3s1.35,3,3,3h17.31v11.04h-17.31c-1.65,0-3,1.35-3,3s1.35,3,3,3h17.31v9.48h-17.31c-1.65,0-3,1.35-3,3s1.35,3,3,3h17.31v8.77h-17.31c-1.65,0-3,1.35-3,3s1.35,3,3,3h17.31v2.54c0,1.65,1.35,3,3,3h13.92c1.65,0,3-1.35,3-3v-52.83c0-1.65-1.35-3-3-3h0Z"/>
      </g>
      <g>
        <path class="cls-6" d="M283.18,312.94c-1.1,0-2-.9-2-2s.9-2,2-2h66.18c1.1,0,2,.9,2,2s-.9,2-2,2h-66.18Z"/>
        <path class="cls-5" d="M349.36,309.94c.55,0,1,.45,1,1s-.45,1-1,1h-66.18c-.55,0-1-.45-1-1s.45-1,1-1h66.18M349.36,307.94h-66.18c-1.65,0-3,1.35-3,3s1.35,3,3,3h66.18c1.65,0,3-1.35,3-3s-1.35-3-3-3h0Z"/>
      </g>
      <g>
        <path class="cls-6" d="M291.43,337.97c-2.11,0-3.43-.2-3.44-.2-.89-.14-1.58-.86-1.68-1.75-.1-.89.41-1.75,1.25-2.08,12.08-4.78,11.82-13.17,11.8-13.52-.03-.55.17-1.08.55-1.48.37-.39.9-.62,1.45-.62h14.91c.67,0,1.29.33,1.67.89.37.56.44,1.26.18,1.88-6.4,15.24-20.79,16.88-26.69,16.88Z"/>
        <path class="cls-5" d="M316.27,319.31c.33,0,.65.17.83.45.19.28.22.63.09.94-6.08,14.49-19.53,16.27-25.76,16.27-1.98,0-3.24-.18-3.29-.19-.45-.07-.79-.43-.84-.88s.21-.88.63-1.04c12.74-5.04,12.45-14.11,12.44-14.5-.01-.27.09-.54.27-.74.19-.2.45-.31.72-.31h14.91M316.27,317.31h-14.91c-.82,0-1.61.34-2.17.93-.56.59-.86,1.39-.82,2.21.01.32.21,8.04-11.17,12.54-1.26.5-2.03,1.78-1.88,3.12.15,1.34,1.19,2.42,2.52,2.63.02,0,1.41.21,3.6.21,6.09,0,20.98-1.7,27.61-17.5.39-.93.29-1.98-.27-2.82-.56-.84-1.49-1.34-2.5-1.34h0Z"/>
      </g>
      <g>
        <path class="cls-6" d="M344.39,336.08c-.42,0-.82-.13-1.16-.37l-18.6-13.21c-.53-.38-.84-.99-.84-1.63,0-.42.13-.82.37-1.16.37-.53.98-.84,1.63-.84.42,0,.82.13,1.16.37l18.6,13.21c.53.38.84.99.84,1.63,0,.42-.13.82-.37,1.16-.37.53-.98.84-1.63.84Z"/>
        <path class="cls-5" d="M325.78,319.88c.2,0,.4.06.58.18l18.6,13.21c.27.2.42.5.42.82,0,.2-.06.4-.18.58-.19.27-.5.42-.82.42-.2,0-.4-.06-.58-.18l-18.6-13.21c-.27-.2-.42-.5-.42-.82,0-.2.06-.4.18-.58.2-.27.5-.42.82-.42M325.78,317.88c-.97,0-1.89.47-2.45,1.26-.36.51-.55,1.11-.55,1.74,0,.97.47,1.88,1.26,2.44l18.61,13.21c.51.36,1.11.55,1.74.55.97,0,1.89-.47,2.45-1.26.36-.51.55-1.11.55-1.74,0-.97-.47-1.88-1.26-2.44l-18.61-13.21c-.51-.36-1.11-.55-1.74-.55h0Z"/>
      </g>
      <g>
        <path class="cls-6" d="M390,261.51c-.89,0-1.67-.61-1.91-1.45s.11-1.76.85-2.24c10.48-6.64,9.61-12.59,9.6-12.65-.12-.57.04-1.19.41-1.65.38-.47.95-.74,1.55-.74h12.71c.62,0,1.2.28,1.58.77.38.49.51,1.12.36,1.72-4.12,16.05-24.28,16.23-25.14,16.23h-.02Z"/>
        <path class="cls-5" d="M413.22,243.78c.31,0,.6.14.79.39s.26.56.18.86c-3.93,15.3-23.45,15.48-24.17,15.48h-.02c-.44,0-.83-.3-.95-.73-.12-.43.05-.88.43-1.12,11.25-7.13,10.06-13.61,10.05-13.67-.06-.29.01-.61.2-.84.19-.23.47-.37.77-.37h12.71M413.22,241.78h-12.71c-.9,0-1.75.41-2.33,1.11-.56.68-.78,1.57-.62,2.45.03.27.43,5.57-9.15,11.64-1.11.71-1.64,2.09-1.28,3.35.36,1.27,1.53,2.16,2.85,2.18h0c.63,0,5.85-.06,11.59-2.12,7.73-2.77,12.77-7.91,14.55-14.87.23-.91.04-1.85-.54-2.59-.57-.74-1.44-1.16-2.37-1.16h0Z"/>
      </g>
      <g>
        <path class="cls-6" d="M377.3,267.57c-.39,0-.77-.12-1.1-.33l-11.9-7.87c-.56-.37-.9-1-.9-1.67,0-.39.11-.78.33-1.1.37-.56.99-.9,1.67-.9.39,0,.77.12,1.1.33l11.9,7.87c.56.37.9,1,.9,1.67,0,.39-.11.78-.33,1.1-.37.56-.99.9-1.67.9Z"/>
        <path class="cls-5" d="M365.39,256.7c.19,0,.38.05.55.17l11.91,7.87c.29.19.45.51.45.83,0,.19-.05.38-.17.55-.19.29-.51.45-.83.45-.19,0-.38-.05-.55-.17l-11.91-7.87c-.29-.19-.45-.51-.45-.83,0-.19.05-.38.17-.55.19-.29.51-.45.83-.45M365.39,254.7c-1.01,0-1.95.5-2.5,1.35-.32.49-.5,1.06-.5,1.66,0,1,.5,1.94,1.35,2.5l11.91,7.87c.49.33,1.06.5,1.65.5,1.01,0,1.95-.5,2.5-1.35.33-.49.5-1.06.5-1.66,0-1-.5-1.94-1.35-2.5l-11.91-7.87c-.49-.33-1.06-.5-1.65-.5h0Z"/>
      </g>
      <g>
        <path class="cls-6" d="M368.61,293.6c-.26,0-.51-.05-.75-.15l-8.68-3.63c-.55-.23-.97-.69-1.14-1.26-.17-.58-.08-1.19.25-1.69,7.81-11.8,17.68-13.07,21.56-13.07.85,0,1.41.06,1.56.08.83.11,1.5.73,1.69,1.54.19.81-.16,1.66-.85,2.12-12.7,8.35-11.71,13.44-11.7,13.49.22.71,0,1.52-.57,2.04-.38.34-.86.53-1.36.53Z"/>
        <path class="cls-5" d="M379.84,274.79c.82,0,1.33.06,1.43.07.41.05.75.36.84.77.09.41-.08.83-.43,1.06-13.66,8.98-12.13,14.53-12.11,14.58.12.37,0,.79-.28,1.05-.19.17-.44.27-.68.27-.12,0-.25-.02-.37-.07l-8.68-3.63c-.27-.12-.48-.35-.57-.63-.09-.29-.04-.59.12-.84,7.58-11.46,17.14-12.62,20.73-12.62M379.84,272.79c-4.04,0-14.32,1.32-22.4,13.52-.49.75-.63,1.67-.37,2.53.26.86.89,1.55,1.71,1.9l8.68,3.63c.37.15.75.23,1.14.23.75,0,1.47-.28,2.03-.79.83-.75,1.17-1.91.88-3-.03-.37-.14-4.94,11.27-12.44,1.04-.68,1.55-1.96,1.28-3.17-.28-1.22-1.3-2.14-2.53-2.31-.22-.03-.8-.09-1.69-.09h0Z"/>
      </g>
      <g>
        <path class="cls-6" d="M413.32,291.18c-1.1,0-2-.89-2-1.99v-.03h-10.61c-1.1,0-2-.9-2-2s.9-2,2-2h10.6l-.03-8.51h-10.57c-1.1,0-2-.9-2-2s.9-2,2-2h10.55l-.03-9.02h-10.52c-1.1,0-2-.9-2-2s.9-2,2-2h25.22c1.1,0,2,.9,2,2v27.55c0,1.1-.9,2-2,2h-12.61Z"/>
        <path class="cls-5" d="M425.93,260.63c.55,0,1,.45,1,1v27.55c0,.55-.45,1-1,1h-12.61c-.55,0-1-.45-1-1v-1.02h-11.61c-.55,0-1-.45-1-1s.45-1,1-1h11.6l-.04-10.51h-11.56c-.55,0-1-.45-1-1s.45-1,1-1h11.56l-.04-11.02h-11.51c-.55,0-1-.45-1-1s.45-1,1-1h25.22M425.93,258.63h-25.22c-1.65,0-3,1.35-3,3s1.35,3,3,3h9.52l.03,7.02h-9.55c-1.65,0-3,1.35-3,3s1.35,3,3,3h9.57l.02,6.51h-9.59c-1.65,0-3,1.35-3,3s1.35,3,3,3h9.78c.41,1.17,1.53,2.02,2.83,2.02h12.61c1.65,0,3-1.35,3-3v-27.55c0-1.65-1.35-3-3-3h0Z"/>
      </g>
      <g>
        <path class="cls-6" d="M432.59,267.57c-.6,0-1.17-.27-1.55-.74-.58-.71-.6-1.72-.05-2.46,7.01-9.35,17.61-12.13,18.06-12.24.16-.04.32-.06.49-.06.39,0,.77.12,1.1.33l8.68,5.75c.81.54,1.12,1.58.73,2.47-.32.73-1.04,1.2-1.83,1.2h0c-.16,0-.31-.02-.47-.06-.87-.21-1.88-.31-3-.31-8.59,0-21.18,5.87-21.31,5.93-.27.12-.56.19-.85.19Z"/>
        <path class="cls-5" d="M449.54,253.06c.19,0,.39.06.55.17l8.68,5.75c.4.27.56.79.36,1.23-.16.37-.52.6-.91.6-.08,0-.16,0-.24-.03-.98-.23-2.08-.34-3.24-.34-8.8,0-21.59,5.95-21.73,6.02-.14.06-.28.09-.42.09-.29,0-.58-.13-.78-.37-.29-.36-.3-.86-.02-1.23,6.79-9.06,17.07-11.76,17.5-11.87.08-.02.16-.03.25-.03M449.54,251.06c-.25,0-.51.03-.76.1-.45.11-11.38,2.98-18.6,12.61-.83,1.11-.8,2.62.07,3.69.57.7,1.42,1.1,2.33,1.1.44,0,.88-.1,1.27-.28.13-.06,12.55-5.83,20.89-5.83,1.05,0,1.98.1,2.77.28.23.05.46.08.7.08,1.19,0,2.27-.71,2.75-1.81.58-1.33.12-2.89-1.09-3.69l-8.68-5.75c-.5-.33-1.07-.5-1.66-.5h0Z"/>
      </g>
      <g>
        <path class="cls-6" d="M451.16,289.16c-.35,0-.69-.09-.99-.26l-17.76-10.16c-.62-.36-1.01-1.02-1.01-1.74,0-.35.09-.69.26-.99.36-.62,1.02-1.01,1.74-1.01.35,0,.69.09.99.27l17.76,10.16c.62.36,1.01,1.02,1.01,1.74,0,.35-.09.69-.26.99-.36.62-1.02,1.01-1.74,1.01Z"/>
        <path class="cls-5" d="M433.4,275.99c.17,0,.34.04.5.13l17.76,10.16c.32.18.5.52.5.87,0,.17-.04.34-.13.5-.18.32-.52.5-.87.5-.17,0-.34-.04-.5-.13l-17.76-10.16c-.32-.18-.5-.52-.5-.87,0-.17.04-.34.13-.5.18-.32.52-.5.87-.5M433.4,273.99c-1.07,0-2.07.58-2.6,1.51-.26.46-.4.97-.4,1.49,0,1.07.58,2.07,1.51,2.6l17.76,10.16c.45.26.97.4,1.49.4,1.07,0,2.07-.58,2.6-1.51.26-.45.4-.97.4-1.49,0-1.07-.58-2.07-1.51-2.6l-17.76-10.16c-.45-.26-.97-.4-1.49-.4h0Z"/>
      </g>
      <g>
        <path class="cls-6" d="M363.38,336.08c-.61,0-1.19-.28-1.57-.76-.28-.35-.43-.79-.43-1.24,0-.61.27-1.19.76-1.57l37.33-29.57c.35-.28.79-.43,1.24-.43.62,0,1.19.28,1.57.76.28.35.43.79.43,1.24,0,.61-.27,1.19-.76,1.57l-37.33,29.57c-.35.28-.79.43-1.24.43Z"/>
        <path class="cls-5" d="M400.71,303.51c.29,0,.59.13.78.38.15.18.22.4.22.62,0,.3-.13.59-.38.79l-37.33,29.57c-.18.15-.4.22-.62.22-.29,0-.59-.13-.78-.38-.15-.18-.22-.4-.22-.62,0-.3.13-.59.38-.79l37.33-29.57c.18-.15.4-.22.62-.22M400.71,301.51c-.67,0-1.33.23-1.86.65l-37.33,29.57c-.73.58-1.14,1.44-1.14,2.36,0,.67.23,1.33.65,1.86.57.72,1.43,1.14,2.35,1.14.67,0,1.33-.23,1.86-.65l37.33-29.57c.73-.58,1.14-1.44,1.14-2.36,0-.67-.23-1.33-.65-1.86-.57-.72-1.43-1.14-2.35-1.14h0Z"/>
      </g>
      <g>
        <path class="cls-6" d="M374.48,336.08c-.61,0-1.18-.27-1.56-.75-.28-.36-.44-.8-.44-1.25,0-.61.27-1.18.75-1.56l14.73-11.81c.35-.28.8-.44,1.25-.44.61,0,1.18.27,1.56.75.28.36.44.8.44,1.25,0,.61-.27,1.18-.75,1.56l-14.73,11.81c-.35.28-.8.44-1.25.44Z"/>
        <path class="cls-5" d="M389.21,321.27c.29,0,.58.13.78.37.15.18.22.41.22.62,0,.29-.13.58-.37.78l-14.73,11.81c-.18.15-.41.22-.62.22-.29,0-.58-.13-.78-.37-.15-.18-.22-.41-.22-.62,0-.29.13-.58.37-.78l14.73-11.81c.18-.15.41-.22.63-.22M389.21,319.27c-.68,0-1.34.23-1.87.66l-14.73,11.81c-.72.58-1.12,1.43-1.12,2.35,0,.67.23,1.34.66,1.87.58.72,1.43,1.13,2.34,1.13.68,0,1.34-.23,1.87-.66l14.73-11.81c.72-.58,1.12-1.43,1.12-2.35,0-.67-.23-1.34-.66-1.87-.58-.72-1.43-1.13-2.34-1.13h0Z"/>
      </g>
      <g>
        <path class="cls-6" d="M431.49,333.96c-1.05-.05-1.89-.91-1.9-1.96l-.23-13.69-10.84-6.85c-.93-.59-1.21-1.83-.62-2.76.37-.58,1-.93,1.69-.93.38,0,.75.11,1.07.31l11.76,7.43.09.06,25.19,15.92c.77.49,1.11,1.43.84,2.3-.26.83-1.03,1.4-1.91,1.4l-25.12-1.21Z"/>
        <path class="cls-5" d="M419.58,308.76c.18,0,.37.05.53.15l11.72,7.41s.04.02.06.04l25.25,15.96c.38.24.56.71.42,1.15-.13.42-.52.7-.95.7-.02,0-.03,0-.05,0l-25.02-1.21c-.53-.03-.94-.46-.95-.98l-.24-14.23-11.3-7.14c-.47-.3-.61-.91-.31-1.38.19-.3.52-.47.85-.47M419.58,306.76c-1.03,0-1.98.52-2.54,1.39-.88,1.4-.47,3.26.93,4.14l10.39,6.57.22,13.15c.03,1.58,1.28,2.87,2.86,2.94l25.02,1.21h.05s.1,0,.1,0c1.31,0,2.46-.84,2.86-2.1.41-1.3-.1-2.71-1.26-3.44l-25.22-15.94s-.09-.06-.13-.08l-11.68-7.39c-.48-.3-1.04-.46-1.6-.46h0Z"/>
      </g>
      <g>
        <path class="cls-6" d="M484.93,263.63c-1.1,0-2-.9-2-2s.9-2,2-2h10.6v-12.65c0-1.1.9-2,2-2h14.16c1.1,0,2,.9,2,2v12.65h11.12c1.1,0,2,.9,2,2s-.9,2-2,2h-39.89Z"/>
        <path class="cls-5" d="M511.7,245.98c.55,0,1,.45,1,1v13.65h12.12c.55,0,1,.45,1,1s-.45,1-1,1h-39.89c-.55,0-1-.45-1-1s.45-1,1-1h11.6v-13.65c0-.55.45-1,1-1h14.16M511.7,243.98h-14.16c-1.65,0-3,1.35-3,3v11.65h-9.6c-1.65,0-3,1.35-3,3s1.35,3,3,3h39.89c1.65,0,3-1.35,3-3s-1.35-3-3-3h-10.12v-11.65c0-1.65-1.35-3-3-3h0Z"/>
      </g>
      <g>
        <path class="cls-6" d="M483.24,292.38c-1.1,0-2-.9-2-2s.9-2,2-2h9.3v-22.81c0-1.1.9-2,2-2s2,.9,2,2v22.81h16.79v-22.81c0-1.1.9-2,2-2h12.21c1.1,0,2,.9,2,2v22.81h7.09c1.1,0,2,.9,2,2s-.9,2-2,2h-53.4Z"/>
        <path class="cls-5" d="M527.55,264.57c.55,0,1,.45,1,1v23.61c0,.07-.03.13-.04.2h8.14c.55,0,1,.45,1,1s-.45,1-1,1h-53.4c-.55,0-1-.45-1-1s.45-1,1-1h10.3v-23.81c0-.55.45-1,1-1s1,.45,1,1v23.81h18.79v-23.81c0-.55.45-1,1-1h12.21M527.55,262.57h-12.21c-1.65,0-3,1.35-3,3v21.81h-14.79v-21.81c0-1.65-1.35-3-3-3s-3,1.35-3,3v21.81h-8.3c-1.65,0-3,1.35-3,3s1.35,3,3,3h53.4c1.65,0,3-1.35,3-3s-1.35-3-3-3h-6.09v-21.81c0-1.65-1.35-3-3-3h0Z"/>
      </g>
      <g>
        <rect class="cls-6" x="489.56" y="295.65" width="15.56" height="45.84" rx="2" ry="2"/>
        <path class="cls-5" d="M503.12,296.65c.55,0,1,.45,1,1v41.84c0,.55-.45,1-1,1h-11.56c-.55,0-1-.45-1-1v-41.84c0-.55.45-1,1-1h11.56M503.12,294.65h-11.56c-1.65,0-3,1.35-3,3v41.84c0,1.65,1.35,3,3,3h11.56c1.65,0,3-1.35,3-3v-41.84c0-1.65-1.35-3-3-3h0Z"/>
      </g>
      <g>
        <path class="cls-6" d="M517.67,339.67c-1.1,0-2-.9-2-2v-9.04h-7.87c-1.1,0-2-.9-2-2s.9-2,2-2h7.87v-10.29h-7.87c-1.1,0-2-.9-2-2s.9-2,2-2h7.87v-8.99h-7.87c-1.1,0-2-.9-2-2s.9-2,2-2h19.75c1.1,0,2,.9,2,2v38.33c0,1.1-.9,2-2,2h-9.88Z"/>
        <path class="cls-5" d="M527.55,298.34c.55,0,1,.45,1,1v38.33c0,.55-.45,1-1,1h-9.88c-.55,0-1-.45-1-1v-10.24c-.16.11-.35.19-.56.19h-8.32c-.55,0-1-.45-1-1s.45-1,1-1h8.32c.21,0,.4.08.56.19v-12.48h-8.87c-.55,0-1-.45-1-1s.45-1,1-1h8.87v-10.99h-8.87c-.55,0-1-.45-1-1s.45-1,1-1h19.75M527.55,296.34h-19.75c-1.65,0-3,1.35-3,3s1.35,3,3,3h6.87v6.99h-6.87c-1.65,0-3,1.35-3,3s1.35,3,3,3h6.87v8.29h-6.87c-1.65,0-3,1.35-3,3s1.35,3,3,3h6.87v8.04c0,1.65,1.35,3,3,3h9.88c1.65,0,3-1.35,3-3v-38.33c0-1.65-1.35-3-3-3h0Z"/>
      </g>
      <g>
        <path class="cls-6" d="M543.92,341.49c-1.1,0-2-.9-2-2v-82.64c0-1.1.9-2,2-2h27.3l.08.02c.1.01.18.04.24.05.09.02.18.04.27.08h.05s.14.08.14.08c.19.1.34.21.48.35l.08.07.04.05c.12.14.21.29.29.45l.07.17c.09.23.13.46.13.69s-.04.45-.13.69l-.11.26-12.34,23c-.35.65-1.02,1.05-1.76,1.05-.33,0-.66-.08-.95-.24-.65-.35-1.05-1.02-1.05-1.76,0-.33.08-.66.24-.95l10.76-20.05h-13.57v80.64c0,1.1-.9,2-2,2h-8.24Z"/>
        <path class="cls-5" d="M571.07,255.86s.03,0,.04,0c.07,0,.13.02.19.04.07.02.13.03.19.06.01,0,.03,0,.04.01.09.05.16.1.23.17,0,0,.01.02.02.03.07.08.13.16.17.26.01.03.02.06.04.08.04.11.07.23.07.34s-.03.23-.07.34c0,.03-.02.05-.03.08,0,.02-.01.04-.02.05l-12.34,23c-.18.34-.53.53-.88.53-.16,0-.32-.04-.47-.12-.34-.18-.53-.52-.53-.88,0-.16.04-.32.12-.47l11.55-21.52h-16.25v81.64c0,.55-.45,1-1,1h-8.24c-.55,0-1-.45-1-1v-82.64c0-.55.45-1,1-1h27.16M571.07,253.86h-27.16c-1.65,0-3,1.35-3,3v82.64c0,1.65,1.35,3,3,3h8.24c1.65,0,3-1.35,3-3v-79.64h10.9l-9.97,18.58c-.23.43-.36.92-.36,1.42,0,1.11.61,2.12,1.58,2.64.43.23.92.36,1.42.36,1.11,0,2.12-.61,2.65-1.58l12.34-22.99.08-.15.04-.13s.03-.06.04-.1c.13-.35.19-.7.19-1.04s-.06-.69-.19-1.04c-.03-.09-.07-.17-.11-.26-.11-.23-.24-.44-.4-.63l-.05-.07-.14-.14c-.21-.21-.44-.38-.69-.51l-.26-.14-.16-.03c-.11-.04-.2-.06-.26-.07-.07-.02-.17-.04-.28-.06l-.15-.04h-.32Z"/>
      </g>
      <g>
        <path class="cls-6" d="M564.84,314.99h-.16c-.12-.02-.26-.05-.4-.1h-.06s-.16-.09-.16-.09c-.17-.07-.36-.2-.54-.38l-.05-.05-.1-.12c-.11-.13-.19-.27-.26-.41-.04-.08-.07-.15-.09-.23l-.04-.1v-.07s-4.23-18.48-4.23-18.48c-.14-.6,0-1.21.39-1.69.38-.48.95-.75,1.56-.75h6.78l1.86-10.66h-3.45c-.7,0-1.36-.37-1.71-.97-.36-.6-.38-1.36-.05-1.97l7.15-13.38c.35-.65,1.02-1.06,1.76-1.06.33,0,.65.08.94.24.47.25.82.67.97,1.18s.1,1.05-.15,1.52l-1.36,2.54-1.38,7.9h7.21c.68,0,1.3.34,1.67.9s.43,1.27.16,1.89l-6.08,14.04c-.02.22-.07.43-.16.63l-8.19,18.64-.06.06c-.08.14-.22.32-.39.46-.07.07-.15.13-.23.19l-.08.05-.15.07c-.09.05-.19.09-.29.12-.16.05-.3.06-.39.07l-.1.02h-.14Z"/>
        <path class="cls-5" d="M573.02,265.47c.16,0,.32.04.47.12.49.26.67.87.41,1.35l-1.43,2.68-1.61,9.23h8.4c.34,0,.65.17.84.45s.22.64.08.95l-6.16,14.21c0,.15-.02.3-.08.45l-8.06,18.35-.05.13s0,0,0,0h0s-.03.05-.05.08c-.06.1-.13.19-.21.26-.04.03-.07.07-.11.1-.03.02-.07.03-.1.05-.05.03-.1.06-.16.07-.07.02-.14.02-.2.03-.03,0-.05.01-.08.01,0,0,0,0,0,0,0,0,0,0,0,0,0,0,0,0,0,0-.03,0-.06,0-.09,0-.1,0-.2-.04-.29-.07,0,0,0,0-.01,0,0,0,0,0,0,0-.11-.05-.21-.12-.29-.2-.03-.03-.05-.06-.07-.09-.05-.06-.09-.13-.13-.2-.02-.04-.03-.08-.05-.12,0-.03-.03-.05-.03-.08l-4.22-18.48c-.07-.3,0-.61.19-.85.19-.24.48-.38.78-.38h7.62l2.21-12.66h-4.64c-.35,0-.68-.18-.86-.49-.18-.3-.19-.68-.02-.99l7.15-13.38c.18-.34.53-.53.88-.53M573.02,263.47h0c-1.11,0-2.13.61-2.65,1.59l-7.14,13.38c-.49.92-.47,2.05.07,2.95.54.9,1.53,1.46,2.57,1.46h2.26l-1.51,8.66h-5.94c-.92,0-1.77.41-2.34,1.13-.57.72-.79,1.65-.58,2.54l4.22,18.47c.03.15.08.28.12.37.03.08.07.16.1.25.1.21.23.42.39.61.06.08.14.17.22.25.27.26.57.47.89.61l.29.13h.1c.17.06.34.09.5.11.1.01.2.02.3.02h.2l.14-.03c.13-.01.31-.04.51-.1.2-.06.35-.13.44-.18.09-.04.21-.1.33-.18.19-.12.32-.25.38-.3.21-.19.4-.42.56-.68,0-.01.02-.03.03-.04l.08-.11.09-.21.05-.11,8.06-18.34c.11-.25.18-.5.22-.77l6.02-13.9c.4-.93.31-1.99-.25-2.84-.56-.85-1.49-1.35-2.51-1.35h-6.02l1.15-6.57,1.28-2.4c.38-.71.46-1.52.22-2.28-.23-.77-.75-1.4-1.46-1.78-.43-.23-.92-.35-1.41-.35h0Z"/>
      </g>
      <g>
        <path class="cls-6" d="M407.47,336.08c-1.1,0-2-.9-2-2v-31.81h-40.07c-1.1,0-2-.9-2-2s.9-2,2-2h40.07v-5.26c0-1.1.9-2,2-2s2,.9,2,2v5.26h24.14v-12.32c0-.74.41-1.42,1.07-1.77.28-.15.61-.23.93-.23.4,0,.79.12,1.13.35l21.09,14.38.12.12s.09.08.15.14c.1.12.19.25.27.4.03.05.07.12.1.2.07.17.11.35.13.53v.03s.01.31.01.31l-.02.07c0,.11-.03.23-.07.37l-.03.11s-.09.17-.11.21c-.08.16-.17.29-.27.4-.05.06-.11.12-.18.18-.12.1-.24.19-.39.27-.07.04-.13.07-.2.1-.25.1-.49.14-.72.14h-47.14v31.81c0,1.1-.9,2-2,2Z"/>
        <path class="cls-5" d="M435.61,284.95c.2,0,.39.06.56.17l21,14.32s.05.05.08.08c.03.03.07.06.1.09.05.06.1.13.13.2.02.03.04.06.05.1.04.11.07.23.07.35,0,0,0,0,0,.01,0,.02-.01.04-.01.06,0,.08,0,.16-.03.24,0,.02-.02.03-.02.05-.02.04-.04.08-.06.12-.04.07-.08.13-.13.19-.03.03-.06.06-.09.09-.06.05-.12.09-.19.13-.04.02-.07.04-.1.05-.11.04-.23.07-.36.07h-48.14v32.81c0,.55-.45,1-1,1s-1-.45-1-1v-32.81h-41.07c-.55,0-1-.45-1-1s.45-1,1-1h41.07v-6.26c0-.55.45-1,1-1s1,.45,1,1v6.26h26.14v-13.32c0-.37.21-.71.53-.88.15-.08.31-.12.47-.12M435.61,282.95c-.49,0-.97.12-1.41.35-.98.52-1.59,1.53-1.59,2.65v11.32h-22.14v-4.26c0-1.65-1.35-3-3-3s-3,1.35-3,3v4.26h-39.07c-1.65,0-3,1.35-3,3s1.35,3,3,3h39.07v30.81c0,1.65,1.35,3,3,3s3-1.35,3-3v-30.81h46.14c.36,0,.72-.07,1.07-.2.12-.05.23-.1.34-.17.19-.1.38-.23.56-.39.1-.09.19-.18.28-.28.15-.17.27-.35.38-.56.04-.07.07-.13.1-.2.05-.1.1-.21.13-.32.07-.22.09-.41.11-.56.02-.11.03-.21.03-.32v-.3l-.03-.09c-.03-.23-.09-.46-.18-.69-.05-.12-.1-.23-.16-.34-.11-.21-.24-.39-.39-.56-.07-.08-.14-.15-.22-.22-.08-.08-.18-.17-.32-.27l-21-14.32c-.5-.34-1.08-.52-1.69-.52h0Z"/>
      </g>
      <g>
        <rect class="cls-6" x="389.22" y="262.56" width="10.3" height="28.62" rx="2" ry="2"/>
        <path class="cls-5" d="M397.52,263.56c.55,0,1,.45,1,1v24.62c0,.55-.45,1-1,1h-6.3c-.55,0-1-.45-1-1v-24.62c0-.55.45-1,1-1h6.3M397.52,261.56h-6.3c-1.65,0-3,1.35-3,3v24.62c0,1.65,1.35,3,3,3h6.3c1.65,0,3-1.35,3-3v-24.62c0-1.65-1.35-3-3-3h0Z"/>
      </g>
    </g>
    <line class="cls-2" x1="62.95" y1="226.61" x2="774.53" y2="226.61"/>
    <path class="cls-3" d="M76.5,249.6h159.12H76.5Z"/>
    <path class="cls-3" d="M94.52,277.17h139.78H94.52Z"/>
    <path class="cls-3" d="M112.26,304.74h122.04-122.04Z"/>
    <path class="cls-3" d="M137,332.31h97.29-97.29Z"/>
    <path class="cls-3" d="M765.14,249.6h-159.12,159.12Z"/>
    <path class="cls-3" d="M747.12,277.17h-139.78,139.78Z"/>
    <path class="cls-3" d="M729.38,304.74h-122.04,122.04Z"/>
    <path class="cls-3" d="M704.63,332.31h-97.29,97.29Z"/>
  </g>
</svg>